<?xml version="1.0" encoding="UTF-8" standalone="no"?>
<!-- Created with Inkscape (http://www.inkscape.org/) -->

<svg
   xmlns:dc="http://purl.org/dc/elements/1.1/"
   xmlns:cc="http://creativecommons.org/ns#"
   xmlns:rdf="http://www.w3.org/1999/02/22-rdf-syntax-ns#"
   xmlns:svg="http://www.w3.org/2000/svg"
   xmlns="http://www.w3.org/2000/svg"
   xmlns:sodipodi="http://sodipodi.sourceforge.net/DTD/sodipodi-0.dtd"
   xmlns:inkscape="http://www.inkscape.org/namespaces/inkscape"
   version="1.1"
   id="wolfcon"
   viewBox="0 0 265 265"
   pointer-events="none"
   display="block"
   inkscape:version="0.48.4 r9939"
   width="100%"
   height="100%"
   sodipodi:docname="wolfcon - Copy.svg"
   style="display:block">
  <metadata
     id="metadata3999">
    <rdf:RDF>
      <cc:Work
         rdf:about="">
        <dc:format>image/svg+xml</dc:format>
        <dc:type
           rdf:resource="http://purl.org/dc/dcmitype/StillImage" />
      </cc:Work>
    </rdf:RDF>
  </metadata>
  <defs
     id="defs3997" />
  <sodipodi:namedview


     objecttolerance="10"
     gridtolerance="10"
     guidetolerance="10"
     inkscape:pageopacity="0"
     inkscape:pageshadow="2"
     inkscape:window-width="2475"
     inkscape:window-height="952"
     id="namedview3995"
     showgrid="false"
     inkscape:zoom="2.6074563"
     inkscape:cx="282.81995"
     inkscape:cy="124.39158"
     inkscape:window-x="0"
     inkscape:window-y="0"
     inkscape:window-maximized="0"
     inkscape:current-layer="wolfcon" />
  <path
     d="m 155.16979,208.40446 c -8.84644,-3.17118 -25.33051,-16.54926 -33.79278,-27.42546 -4.82671,-6.20356 -6.36083,-4.96826 -5.55692,4.47458 0.37975,4.46059 0.98913,9.87203 1.35418,12.02542 l 0.66373,3.91525 -6.17625,-6.66487 c -4.94612,-5.33742 -7.55626,-9.74544 -13.10498,-22.13175 -3.810784,-8.50679 -7.399834,-15.75806 -7.975654,-16.11394 -2.0132,-1.24422 -3.42428,1.78106 -4.09308,8.77537 -0.37079,3.87775 -1.17536,7.05045 -1.78794,7.05045 -2.36009,0 -4.08584,-9.633 -4.70953,-26.28814 l -0.64929,-17.33898 3.43433,-6.79791 3.43432,-6.79792 4.83587,0.66558 c 6.94403,0.95574 15.049014,-0.3069 18.497614,-2.88165 5.15167,-3.84628 4.51967,-4.88302 -2.9767,-4.88302 -9.348634,0 -19.664894,-3.60408 -25.056724,-8.75379 -6.09771,-5.82389 -12.91762,-16.16494 -15.52358,-23.53843 -2.44761,-6.92544 -3.994,-19.16594 -2.42113,-19.16449 0.5469,5e-4 4.51808,0.711 8.82486,1.57889 4.30678,0.86789 13.21544,1.92089 19.79702,2.34001 l 11.966494,0.76202 0.33858,-6.53583 c 0.32245,-6.22449 0.4718,-6.52229 3.13519,-6.25136 21.22464,2.15901 22.22123,1.96854 44.1772,-8.44316 l 15.67026,-7.43096 13.98305,-0.66736 c 17.00624,-0.81165 21.06656,-2.35542 37.16894,-14.13192 6.16989,-4.51236 11.97513,-8.2043 12.90053,-8.2043 2.52571,0 11.186,9.16207 12.09909,12.80013 0.5537,2.20607 0.21393,4.07664 -1.10757,6.09785 -4.25648,6.51015 -6.3691,12.53622 -6.0309,17.20267 l 0.34279,4.72986 6.57684,0.11785 c 7.90386,0.14163 9.10198,1.55566 8.14741,9.61557 -0.91968,7.76525 -4.35386,12.72621 -11.20454,16.18591 -21.17149,10.69192 -38.27279,32.02284 -41.13083,51.30358 -1.22701,8.27754 -0.56521,22.32093 1.44662,30.69765 1.89243,7.87957 7.1831,18.28071 12.81626,25.19599 l 5.13756,6.3069 -2.52931,2.69233 c -4.86798,5.18173 -10.46328,6.35918 -28.0839,5.90985 -15.51477,-0.39562 -16.32211,-0.53611 -23.88798,-4.15692 -14.96135,-7.16009 -15.10169,-7.20171 -15.10169,-4.4792 0,2.56168 6.72792,14.35369 9.50401,16.65764 1.76833,1.46758 2.27216,3.42171 0.84345,3.27132 -0.46144,-0.0486 -2.34916,-0.62966 -4.19492,-1.29131 l 0,0 z M 161.58007,59.0512 c 3.09805,-3.29653 2.09805,-4.05936 -3.38573,-2.58273 -4.48082,1.20656 -5.82116,2.80174 -5.82116,6.92797 0,2.15863 0.0781,2.16292 3.42281,0.18817 1.88255,-1.11148 4.48538,-3.15151 5.78408,-4.53341 l 0,0 z"
     id="path4104"
     style="fill-opacity:1;fill-rule:evenodd;stroke:#000000;stroke-width:1.11864412;stroke-opacity:1"
     inkscape:connector-curvature="0" />
  <path
     d="m 121.05114,256.70381 c -9.84704,-0.79071 -24.280634,-3.49618 -29.820364,-5.58959 -37.58177,-14.20175 -64.18904,-38.75833 -78.5429,-72.48939 -4.44301,-10.44094 -6.6251098,-18.39641 -8.5516198,-31.17742 -2.1051,-13.9658 -2.08966,-23.42408 0.0619,-37.91409 C 8.069246,83.4629 18.350136,61.88228 36.106926,42.55366 50.965906,26.37936 64.743716,16.73301 83.949116,9.05757 94.977996,4.6498797 98.87164,4.3354697 90.676506,8.51434 c -7.84998,4.00286 -19.99911,13.52717 -27.46451,21.5308 -33.52624,35.94338 -41.03358,87.05979 -19.22221,130.88144 6.05518,12.16558 10.06451,17.76105 20.49049,28.59674 21.28587,22.12235 46.842504,33.36965 78.384424,34.49645 36.2359,1.29448 64.52988,-10.31251 89.39736,-36.67335 10.46499,-11.09343 17.93298,-23.31838 24.89853,-40.75839 l 2.68365,-6.7192 -0.61655,5.70768 c -1.0618,9.82955 -6.12832,27.23421 -10.8431,37.24852 -6.7784,14.39752 -13.66014,24.10561 -25.49847,35.9707 -22.60658,22.65771 -49.28777,35.42372 -78.34346,37.48458 -4.6144,0.32728 -9.6483,0.72826 -11.18644,0.89105 -1.53813,0.16278 -7.07542,-0.0477 -12.30508,-0.46755 l 0,0 z"
     id="path4106"
     style="fill-opacity:1;fill-rule:evenodd;stroke:#000000;stroke-width:1.11864412;stroke-opacity:1;filter:url(#dropShadow)"
     inkscape:connector-curvature="0" />
  <filter
     id="dropShadow"
     color-interpolation-filters="sRGB">
    <feGaussianBlur
       in="SourceAlpha"
       stdDeviation="3"
       id="feGaussianBlur3985" />
    <feOffset
       dx="2"
       dy="4"
       id="feOffset3987" />
    <feMerge
       id="feMerge3989">
      <feMergeNode
         id="feMergeNode3991" />
      <feMergeNode
         in="SourceGraphic"
         id="feMergeNode3993" />
    </feMerge>
  </filter>
</svg>


